<svg width="61" height="60" viewBox="0 0 61 60" fill="none" xmlns="http://www.w3.org/2000/svg">
<ellipse cx="30.6633" cy="30" rx="29.9966" ry="30" fill="#56C1EA"/>
<path d="M60.6665 30C60.6665 46.5685 47.2365 60 30.6698 60C30.664 60 30.6684 30 30.6684 30L30.6698 0C47.2365 0 60.6665 13.4315 60.6665 30Z" fill="#00AEEF"/>
<g clip-path="url(#clip0_17133_208)">
<path d="M6.66663 25.142H9.85701L9.85701 42.6891H13.0474L13.0474 21.9517H6.66663L6.66663 25.142Z" fill="white"/>
<path d="M9.85619 20.3557H14.6418L14.6418 42.6883H17.8321L17.8321 17.1653H9.85619V20.3557ZM24.2129 29.9268C24.2129 24.6483 28.5056 20.3557 33.7841 20.3557C39.0625 20.3557 43.3552 24.6483 43.3552 29.9268H46.5456C46.5456 22.8904 40.8204 17.1653 33.7841 17.1653C26.7477 17.1653 21.0225 22.8904 21.0225 29.9268C21.0225 36.9632 26.7477 42.6883 33.7841 42.6883L54.5215 42.6883V39.498L33.7841 39.498C28.5056 39.498 24.2129 35.2053 24.2129 29.9268Z" fill="white"/>
<path d="M33.7837 33.1175C32.0242 33.1175 30.5933 31.6866 30.5933 29.9272C30.5933 28.1677 32.0242 26.7368 33.7837 26.7368C35.5432 26.7368 36.9741 28.1677 36.9741 29.9272H40.1645C40.1645 26.4082 37.3027 23.5464 33.7837 23.5464C30.2647 23.5464 27.403 26.4082 27.403 29.9272C27.403 33.4461 30.2647 36.3079 33.7837 36.3079L54.5212 36.3079V33.1175L33.7837 33.1175Z" fill="white"/>
</g>
<defs>
<clipPath id="clip0_17133_208">
<rect width="47.8557" height="47.8557" fill="white" transform="translate(6.66663 6)"/>
</clipPath>
</defs>
</svg>
